<?xml version="1.0" encoding="utf-8"?>
<!-- Generator: Adobe Illustrator 26.3.1, SVG Export Plug-In . SVG Version: 6.00 Build 0)  -->
<!DOCTYPE svg PUBLIC "-//W3C//DTD SVG 1.1//EN" "http://www.w3.org/Graphics/SVG/1.1/DTD/svg11.dtd" [
	<!ENTITY ns_extend "http://ns.adobe.com/Extensibility/1.0/">
	<!ENTITY ns_ai "http://ns.adobe.com/AdobeIllustrator/10.0/">
	<!ENTITY ns_graphs "http://ns.adobe.com/Graphs/1.0/">
	<!ENTITY ns_vars "http://ns.adobe.com/Variables/1.0/">
	<!ENTITY ns_imrep "http://ns.adobe.com/ImageReplacement/1.0/">
	<!ENTITY ns_sfw "http://ns.adobe.com/SaveForWeb/1.0/">
	<!ENTITY ns_custom "http://ns.adobe.com/GenericCustomNamespace/1.0/">
	<!ENTITY ns_adobe_xpath "http://ns.adobe.com/XPath/1.0/">
]>
<svg version="1.1" xmlns:x="&ns_extend;" xmlns:i="&ns_ai;" xmlns:graph="&ns_graphs;"
	 xmlns="http://www.w3.org/2000/svg" xmlns:xlink="http://www.w3.org/1999/xlink" x="0px" y="0px" width="750px" height="750px"
	 viewBox="0 0 750 750" enable-background="new 0 0 750 750" xml:space="preserve">
<metadata>
	<sfw  xmlns="&ns_sfw;">
		<slices></slices>
		<sliceSourceBounds  bottomLeftOrigin="true" height="7294.651" width="12540.125" x="-6919.125" y="100"></sliceSourceBounds>
	</sfw>
</metadata>
<g id="FILL-BACKGROUND">
	<rect fill="#FFFFFF" width="750" height="750"/>
</g>
<g id="N-TEXT">
</g>
<g id="N-DIMENSIONS">
</g>
<g id="AG-DIAGRAM">
	<g>
		<g>
			
				<line fill="none" stroke="#FB8604" stroke-width="3.25" stroke-linecap="round" stroke-linejoin="round" x1="114.5" y1="600.5" x2="116.5" y2="600.5"/>
			
				<line fill="none" stroke="#FB8604" stroke-width="3.25" stroke-linecap="round" stroke-linejoin="round" stroke-dasharray="3.9755,6.9571" x1="123.457" y1="600.5" x2="437.021" y2="600.5"/>
			
				<line fill="none" stroke="#FB8604" stroke-width="3.25" stroke-linecap="round" stroke-linejoin="round" x1="440.5" y1="600.5" x2="442.5" y2="600.5"/>
		</g>
	</g>
</g>
<g id="AG-GUIDES">
</g>
<g id="AG-DETAILS">
</g>
<g id="AG-DETAIL">
</g>
<g id="AG-PEOPLE">
</g>
<g id="AG-ANIMALS">
	<g id="POLYLINE_868_">
		
			<path fill="none" stroke="#FB8604" stroke-width="2.75" stroke-linecap="round" stroke-linejoin="round" stroke-miterlimit="10" d="
			M369.062,579.929c-3.264-0.139-6.445-0.399-9.518-1.591c-1.674-0.649-3.698-1.53-4.762-3.069c-1.328-1.922-0.319-4.565-0.19-6.669
			c0.194-3.174-0.893-6.274-1.372-9.38c-1.033-6.701,0.299-13.565,0.414-20.292c0.122-7.108-0.075-14.122,1.741-21.057
			c0.895-3.415,2.079-6.747,2.993-10.158c0.941-3.514,1.738-7.065,2.679-10.58c0.216-0.807,0.44-1.612,0.66-2.417"/>
	</g>
	<g id="POLYLINE_867_">
		
			<path fill="none" stroke="#FB8604" stroke-width="2.75" stroke-linecap="round" stroke-linejoin="round" stroke-miterlimit="10" d="
			M367.503,371.401c-0.992,2.574-1.954,5.164-2.502,7.875c-0.549,2.717-0.591,5.454-0.458,8.214c0.138,2.877,0.513,5.869,0.088,8.74
			c-0.332,2.243-1.401,4.284-1.813,6.507c-0.448,2.418-0.21,4.947,0.069,7.37c0.387,3.358,0.944,6.698,1.44,10.042
			c0.87,5.859,1.477,11.748,1.793,17.662c0.313,5.846,0.337,11.745-0.213,17.577c-0.575,6.102-2.258,11.825-3.864,17.712
			c-0.733,2.685-1.307,5.421-1.474,8.204c-0.174,2.894,0.02,5.805,0.386,8.678c0.763,5.981,2.363,11.787,3.585,17.68
			c1.216,5.864,1.626,11.812,1.624,17.793c-0.002,6.727-0.295,13.445-0.523,20.168c-0.09,2.654-0.207,5.308-0.239,7.963
			c-0.037,3.068,0.158,6.066,0.437,9.118c0.271,2.961,0.035,5.939,0.305,8.899c0.227,2.484,1.106,4.433,2.198,6.653
			c2.319,4.712,0.91,9.686,0.803,14.678c-0.049,2.27,0.566,4.655,2.623,5.908c1.345,0.819,3.002,1.038,4.538,1.188
			c3.056,0.298,6.147,0.339,9.214,0.475c5.426,0.24,11.355,0.771,16.624-0.866c2.39-0.743,4.289-2.144,4.841-4.685
			c0.42-1.931,0.115-3.983-0.389-5.867c-0.651-2.434-1.757-4.792-3.712-6.447c-2.698-2.283-6.032-1.949-9.317-2.592
			c-3.445-0.674-5.501-3.226-6.845-6.344c-1.085-2.515-1.633-5.211-2.113-7.896c-0.541-3.025-1.072-6.053-1.561-9.087
			c-1.004-6.238-1.892-12.494-2.406-18.794c-0.487-5.98-0.566-12.023,0.001-18c0.273-2.873,0.7-5.737,1.356-8.548
			c0.721-3.09,1.729-6.104,2.675-9.13c1.688-5.399,2.713-10.959,2.58-16.635c-0.068-2.936-0.523-5.848-0.553-8.787
			c-0.03-2.851,0.3-5.692,0.732-8.506c0.952-6.2,2.403-12.308,3.846-18.408c1.363-5.763,2.86-11.495,4.304-17.237
			c1.509-5.999,3.013-12,4.527-17.998c1.535-6.079,2.959-12.216,5.03-18.142c0.887-2.538,1.885-5.104,3.337-7.38
			c1.206-1.891,2.785-3.249,4.78-4.255c2.488-1.254,4.854-2.403,7.065-4.121c2.394-1.86,4.627-3.92,6.935-5.883
			c1.77-1.505,3.649-3.116,5.836-3.979c1.739-0.686,3.579-0.695,5.418-0.543c6.501,0.537,12.98,1.962,19.397,3.074
			c5.79,1.004,11.581,1.956,17.432,2.53c5.635,0.553,11.354,0.677,16.984,0.003c6.134-0.735,12.132-2.47,17.711-5.122
			c5.288-2.514,10.141-5.819,14.614-9.583c4.593-3.864,8.856-8.154,12.687-12.774c1.976-2.382,3.72-4.906,5.485-7.445
			c1.303-1.874,2.737-3.604,4.682-4.836c2.276-1.442,4.845-2.273,7.274-3.404c2.28-1.062,4.125-2.889,5.994-4.531
			c0.042,2.413-0.146,4.932,0.898,7.189c0.185,0.4,0.55,1.179,1.121,1.068c1.182-0.229,1.478-3.54,2.921-2.894
			c1.478,0.662,2.141,4.188,4.327,3.139c1.331-0.639,1.981-2.47,2.383-3.757c0.346-1.105,0.529-2.344,1.063-3.383
			c0.086-0.168,0.222-0.469,0.43-0.532c0.93-0.282,1.566,2.735,2.453,1.476c0.45-0.638,0.571-1.612,0.727-2.346
			c0.319-1.505,0.493-3.045,0.864-4.539c0.075-0.302,0.139-0.989,0.517-0.765c0.413,0.245,0.503,1.346,0.7,1.762
			c0.112,0.237,0.276,0.587,0.558,0.664c0.818,0.221,1.407-1.461,1.611-1.936c1.351-3.142,2.033-6.584,2.922-9.872
			c0.774-2.862,2.258-5.344,3.293-8.098c0.993-2.643,1.391-5.37,1.169-8.181c-0.139-1.764-0.182-3.328,0.37-5.021
			c0.818-2.508,2.066-4.839,2.82-7.377c0.988-3.323,1.764-6.764,3.188-9.939c0.497-1.108,1.098-2.17,1.863-3.116"/>
	</g>
	<g id="POLYLINE_866_">
		
			<path fill="none" stroke="#FB8604" stroke-width="2.75" stroke-linecap="round" stroke-linejoin="round" stroke-miterlimit="10" d="
			M561.842,233.607c-0.117-4.001-1.527-8.059-3.46-11.534c-1.462-2.628-3.483-4.457-6.24-5.665
			c-1.902-0.834-4.405-1.634-6.466-0.859c-1.343,0.505-2.104,1.774-2.5,3.091c-1.119,3.72-0.279,8.252,1.221,11.738
			c1.057,2.457,2.696,4.76,5.245,5.784c1.416,0.569,3.042,0.657,4.389,1.377c0.408,0.218,0.73,0.505,0.905,0.937
			c0.424,1.047,0.061,2.404-0.06,3.459c-0.241,2.116,0.09,4.168,0.435,6.253c0.334,2.018,0.26,4.042,0.503,6.064
			c0.102,0.847,0.288,1.739,0.919,2.357c0.813,0.796,1.622,1.21,2.206,2.237c0.57,1.003,0.947,2.246,1.89,2.984
			c1.034,0.81,2.435,1.045,3.597,1.615c0.856,0.42,1.376,0.97,1.953,1.72c1.114,1.447,3.065,1.057,4.559,1.917
			c1.127,0.649,1.991,1.683,3.132,2.302c0.768,0.417,1.582,0.238,2.401,0.441c0.957,0.237,1.752,0.888,2.727,1.143
			c2.105,0.55,4.265,0.838,6.431,1.016c4.366,0.357,8.706,0.278,13.038-0.396c2.184-0.34,4.262-0.997,6.423-1.44
			c2.307-0.472,4.634-0.843,6.925-1.391c4.577-1.094,8.715-3.161,12.898-5.256c1.946-0.975,3.895-2.048,5.987-2.679
			c1.944-0.586,3.887-0.504,5.885-0.352c3.729,0.284,7.788,0.825,11.364-0.594c1.994-0.791,3.603-2.219,4.228-4.311
			c0.355-1.188,0.419-2.454,0.316-3.683"/>
	</g>
	<g id="POLYLINE_865_">
		
			<path fill="none" stroke="#FB8604" stroke-width="2.75" stroke-linecap="round" stroke-linejoin="round" stroke-miterlimit="10" d="
			M544.806,231.259c-1.379-0.347-2.052,1.032-2.849,1.883c-0.464,0.495-0.994,0.917-1.603,1.221
			c-1.079,0.538-2.289,0.627-3.447,0.895c-0.411,0.095-1.11,0.203-0.787,0.722c0.356,0.573,1.267,0.862,1.772,1.314
			c1.334,1.194-1.246,1.914-2.098,2.238c-1.966,0.746-3.923,1.475-5.714,2.598c-0.607,0.381-2.892,1.683-2.737,2.618
			c0.157,0.95,3.469,0.162,3.996,0.087c0.699-0.099,1.481-0.294,2.192-0.216c0.734,0.08,0.382,0.524,0.011,0.89
			c-1.269,1.252-2.817,2.183-4.06,3.473c-1.619,1.682-2.744,3.65-1.643,5.925c0.554,1.146,0.26,1.95-0.615,2.854
			c-1.304,1.347-2.89,2.437-4.346,3.608c-1.462,1.176-2.918,2.388-4.145,3.815c-0.612,0.711-1.267,1.534-1.528,2.458
			c-0.142,0.504-0.146,1.042,0.195,1.471c0.426,0.538,1.177,0.608,1.663,1.061c0.953,0.89-0.857,2.437-1.438,3.049
			c-0.622,0.655-1.29,1.289-1.846,2.003c-0.394,0.507-0.746,1.086,0.117,1.208c0.358,0.051,1.684-0.167,1.502,0.27
			c-0.185,0.447-1.356,0.88-1.725,1.09c-0.426,0.242-1.546,0.653-1.776,1.149c0.424,0.226,1.396-0.162,1.837-0.225
			c0.492-0.07,1.022-0.149,1.52-0.091c1.111,0.129,0.794,1.039,0.395,1.767c-0.701,1.282-1.708,2.362-2.52,3.57
			c-0.293,0.436-0.544,0.858,0.173,0.661c0.446-0.123,0.871-0.315,1.327-0.407c1.126-0.227,1.702,0.301,1.973,1.379
			c0.127,0.503,0.258,0.985,0.031,1.448c-0.479,0.979-1.141,1.889-1.691,2.831c-1.728,2.962-2.874,6.218-4.423,9.271
			c-1.518,2.992-3.428,5.683-6.072,7.781c-2.61,2.071-5.657,3.557-8.732,4.8c-5.783,2.337-12.07,3.591-18.217,2.03
			c-6.348-1.612-11.796-5.433-16.613-9.742c-1.438-1.286-2.853-2.606-4.339-3.837c-0.563-0.467-1.135-0.925-1.718-1.367
			c-0.912-0.691-2.074-1.322-2.859-2.151c-0.27-0.285-0.226-0.348-0.228-0.785c-0.002-0.311-0.008-0.623-0.03-0.934
			c-0.023-0.326-0.007-1.07-0.271-1.308c-0.375-0.338-0.735,0.325-1.184-0.073c-0.224-0.198-0.347-0.588-0.456-0.86
			c-1.043-2.616-1.166-5.66-2.527-8.145c-0.211-0.386-0.472-0.812-0.964-0.677c-0.448,0.122-0.733,0.815-1.197,0.843
			c-0.841,0.052-1.09-2.512-1.196-3.035c-0.238-1.166-0.403-2.447-0.934-3.529c-0.229-0.468-0.527-0.792-1.03-0.953
			c-0.513-0.163-1.028-0.126-1.416-0.557c-0.709-0.786-0.83-2.275-1.028-3.253c-0.196-0.971-0.304-2.504-1.041-3.269
			c-0.369-0.383-0.871-0.389-1.358-0.508c-0.661-0.161-1.107-0.513-1.531-1.04c-0.903-1.125-1.502-2.465-2.314-3.652
			c-0.541-0.791-1.213-1.692-2.271-1.619c-0.908,0.063-1.8,0.717-2.501-0.174c-1.179-1.497-1.037-4.397-3.442-4.474
			c-0.993-0.032-1.905,0.063-2.715-0.639c-0.558-0.484-0.965-1.15-1.327-1.783c-0.786-1.373-1.328-2.881-2.155-4.229
			c-0.243-0.396-0.52-0.857-1.019-0.915c-0.49-0.057-0.776,0.158-1.213-0.183c-0.895-0.698-1.336-1.961-2.016-2.842
			c-0.227-0.295-0.544-0.746-0.965-0.701c-0.482,0.052-0.695,0.848-1.2,0.558c-0.289-0.166-0.467-0.846-0.577-1.133
			c-0.297-0.777-0.557-1.57-0.913-2.324c-0.452-0.954-1.076-1.79-1.978-2.363c-1.851-1.175-4.124-1.027-6.206-1.352
			c-2.025-0.317-3.681-1.611-5.67-2.02c-1.953-0.402-4.168,0.124-5.922,0.982c-1.591,0.778-3.452-0.31-4.793-1.2
			c-1.565-1.038-3.027-2.238-4.936-2.517c-2.853-0.417-5.746,0.402-8.61,0.29c-3.008-0.118-5.346-1.688-8.017-2.879
			c-0.776-0.346-1.572-0.617-2.418-0.719c-1.127-0.136-2.271,0.015-3.396-0.136c-1.856-0.249-2.646-2.215-4.411-2.528
			c-0.89-0.158-1.837,0.162-2.666,0.453c-1.378,0.483-2.718,1.121-4.152,1.428c-1.272,0.272-2.731,0.235-3.888-0.422
			c-0.447-0.254-0.781-0.583-0.959-1.068c-0.192-0.522-0.228-0.922-0.767-1.206c-1.003-0.528-2.262-0.53-3.334-0.854
			c-0.98-0.297-1.555-0.73-1.593-1.785c-0.04-1.102-0.113-1.805-1.206-2.333c-1.19-0.575-2.53-0.778-3.768-1.229
			c-0.856-0.311-1.792-0.732-1.916-1.739c-0.105-0.859,0.577-2.201-0.688-2.316c-1.278-0.116-2.584,0.23-3.875,0.161
			c-4.969-0.266-7.421-5.004-10.91-7.826c-0.708-0.573-1.281-0.819-2.028-0.173c-0.867,0.75-1.462,0.846-2.473,0.266
			c-2.404-1.38-4.041-3.775-6.35-5.265c-0.408-0.263-0.824-0.479-0.916,0.144c-0.075,0.509,0.111,1.083,0.156,1.588
			c0.034,0.387,0.129,0.985-0.347,1.115c-0.311,0.084-0.736-0.166-1.009-0.3c-2.74-1.351-5.075-3.398-7.877-4.669
			c-2.3-1.043-5.307-1.984-7.871-1.581c-1.855,0.291,0.333,1.402,0.922,1.873c1.184,0.947-0.639,1.173-1.391,1.249
			c-3.449,0.349-6.761-0.401-10.168-0.74c-0.91-0.091-2.056-0.219-2.141,0.953c-0.077,1.058-0.119,1.643-1.136,2.224
			c-1.091,0.624-2.344,1.037-3.502,1.512c-2.115,0.869-4.233,1.732-6.346,2.608c-3.131,1.298-6.261,2.649-9.272,4.209
			c-3.147,1.63-5.895,3.742-8.625,5.981c-2.549,2.09-5.087,4.265-7.207,6.802c-1.717,2.055-3.181,4.362-5.598,5.667
			c-2.772,1.497-5.96,2.031-8.725,3.559c-2.792,1.543-4.657,4.127-6.822,6.387c-0.909,0.949-1.892,1.829-3.041,2.477
			c-1.324,0.747-2.783,1.208-4.213,1.701c-1.225,0.423-2.448,0.863-3.543,1.569c-1.162,0.749-2.149,1.722-3.192,2.621
			c-0.731,0.63-1.502,1.243-2.406,1.605c-0.993,0.397-2.065,0.478-3.118,0.583c-2.969,0.296-5.678,1.084-8.195,2.742
			c-2.29,1.508-3.577,3.567-5.202,5.713c-1.56,2.06-3.606,3.091-5.93,4.118c-1.698,0.75-3.574,1.443-4.575,3.108
			c-0.451,0.751-0.739,1.593-1.251,2.307c-0.568,0.791-1.341,1.411-2.081,2.031c-2.914,2.443-5.537,5.19-8.253,7.847
			c-2.266,2.216-4.636,4.388-7.3,6.12c-2.672,1.737-5.875,2.92-8.154,5.2c-1.991,1.992-3.002,4.733-4.926,6.786
			c-2.014,2.149-4.835,3.225-7.018,5.154c-1.433,1.267-1.783,2.945-2.534,4.643c-0.941,2.129-2.846,3.615-3.942,5.648
			c-1.147,2.126-0.56,4.486-0.361,6.769c0.274,3.147-0.596,6.25-1.257,9.298c-1.406,6.477-0.909,12.986,0.01,19.499
			c1.063,7.538,2.341,15.056,3.17,22.625c0.738,6.741,0.95,13.5-0.205,20.207c-0.567,3.296-1.393,6.715-1.15,10.083
			c0.233,3.22,1.568,6.236,1.821,9.457c0.215,2.733-0.199,5.673,0.659,8.322c0.603,1.863,2.003,3.198,3.426,4.473"/>
	</g>
	<g id="POLYLINE_864_">
		
			<path fill="none" stroke="#FB8604" stroke-width="2.75" stroke-linecap="round" stroke-linejoin="round" stroke-miterlimit="10" d="
			M198.353,333.937c-1.966,5.029-3.711,10.12-4.882,15.398c-1.04,4.69-1.713,9.446-2.333,14.206
			c-0.98,7.525-1.961,15.049-2.941,22.574c-0.617,4.734-1.222,9.485-2.116,14.176c-0.953,5.007-2.526,9.684-5.039,14.127
			c-1.459,2.579-3.094,5.057-4.688,7.554c-1.406,2.203-2.676,4.51-4.239,6.609c-1.502,2.017-3.439,3.557-5.203,5.328
			c-1.542,1.548-2.753,3.29-3.644,5.285c-2.287,5.12-3.161,10.892-4.343,16.336c-1.162,5.351-2.326,10.734-4.086,15.926
			c-0.815,2.403-1.967,4.682-2.738,7.097c-0.631,1.977-0.692,3.989-0.648,6.049c0.12,5.584-0.023,11.131-0.615,16.69
			c-0.573,5.371-1.447,10.585-1.008,16.001c0.474,5.846,1.631,11.615,2.703,17.372c0.991,5.324,2.139,10.633,3.498,15.876
			c1.314,5.07,2.735,10.299,5.587,14.75c1.502,2.345,3.11,4.579,4.499,6.998c1.219,2.124,2.395,4.319,4.006,6.179
			c0.97,1.121,2.119,2.105,3.48,2.716c1.715,0.77,3.622,0.834,5.471,0.888c2.926,0.086,6.519,0.033,8.655,2.427
			c0.761,0.853,1.154,1.94,1.411,3.037c0.501,2.144,0.846,4.494,0.733,6.702c-0.065,1.258-0.356,2.517-1.324,3.394
			c-1.042,0.945-2.523,1.413-3.838,1.804c-5.174,1.536-10.897,1.303-16.236,1.156c-2.766-0.076-5.571-0.147-8.317-0.511
			c-1.515-0.201-3.692-0.505-4.557-1.97c-0.978-1.657-0.229-4.081-0.287-5.866c-0.06-1.842-0.671-3.592-1.48-5.231
			c-2.173-4.407-5.692-8.253-6.868-13.12c-0.612-2.532-0.434-5.165-0.393-7.744c0.039-2.425-0.181-4.805-0.64-7.187
			c-1.057-5.487-2.706-10.89-4.228-16.262c-1.593-5.624-3.29-11.21-5.141-16.755c-1.592-4.768-3.357-9.492-5.211-14.163
			c-2.497-6.29-4.995-12.58-7.492-18.871c-0.623-1.569-1.268-3.158-1.376-4.861c-0.112-1.78,0.388-3.543,0.984-5.201
			c0.947-2.635,2.173-5.164,3.212-7.763c1.014-2.537,1.87-5.134,2.592-7.768c1.526-5.567,2.54-11.26,3.519-16.943
			c0.96-5.567,1.713-11.187,2.227-16.813c0.469-5.134,0.417-10.236,0.102-15.376c-0.38-6.192-0.798-12.382-1.01-18.583
			c-0.163-4.775-0.139-9.557,0.006-14.333c0.207-6.829,0.415-13.659,0.622-20.488c0.18-5.946,0.348-11.892,0.541-17.838
			c0.177-5.442,0.364-10.887,0.762-16.318c0.386-5.273,0.954-10.656,2.514-15.728c1.544-5.02,4.497-9.091,7.839-13.062"/>
	</g>
	<g id="POLYLINE_863_">
		
			<path fill="none" stroke="#FB8604" stroke-width="2.75" stroke-linecap="round" stroke-linejoin="round" stroke-miterlimit="10" d="
			M190.795,365.954c3.101,0.026,6.192,0.294,9.291,0.395c2.7,0.088,5.427-0.167,8.098,0.346c2.585,0.496,4.976,1.661,7.249,2.954
			c2.579,1.466,5.041,3.131,7.467,4.834c4.976,3.492,9.763,7.259,14.861,10.576c5.111,3.326,10.56,6.068,16.15,8.492
			c5.347,2.318,10.83,4.361,16.412,6.039c5.816,1.748,11.747,3.11,17.772,3.903c5.885,0.775,11.806,0.965,17.729,0.584
			c5.919-0.381,11.866-1.424,17.809-1.166c3.061,0.133,6.08,0.668,9.108,1.105c2.798,0.404,5.611,0.686,8.433,0.857
			c5.802,0.351,11.628,0.306,17.37-0.68c1.399-0.24,2.787-0.532,4.174-0.828"/>
	</g>
	<g id="POLYLINE_862_">
		
			<path fill="none" stroke="#FB8604" stroke-width="2.75" stroke-linecap="round" stroke-linejoin="round" stroke-miterlimit="10" d="
			M623.128,249.635c3.971,1.87,8.019,3.309,12.421,3.685c4.436,0.379,8.993,0.09,13.395-0.533c2.34-0.331,5.241-0.939,6.805-2.908
			c1.482-1.865,1.122-4.729,0.288-6.789c-0.916-2.262-2.82-4.535-5.092-5.503c-0.292-0.125-0.596-0.22-0.897-0.321"/>
	</g>
	<g id="POLYLINE_861_">
		
			<path fill="none" stroke="#FB8604" stroke-width="2.75" stroke-linecap="round" stroke-linejoin="round" stroke-miterlimit="10" d="
			M650.048,237.267c-0.715,1.075-2.741,0.648-3.774,0.489c-2.362-0.362-4.709-0.854-7.057-1.292
			c-1.899-0.353-3.893-0.685-5.656-1.511c-0.854-0.4-1.73-0.978-2.013-1.932c-0.83-2.796,2.742-3.595,4.69-3.721
			c2.203-0.143,4.466,0.046,6.65,0.342c1.357,0.184,2.735,0.478,3.929,1.177c1.789,1.047,3.479,3.38,3.458,5.526
			C650.271,236.668,650.219,236.988,650.048,237.267z"/>
	</g>
	<g id="POLYLINE_860_">
		
			<path fill="none" stroke="#FB8604" stroke-width="2.75" stroke-linecap="round" stroke-linejoin="round" stroke-miterlimit="10" d="
			M644.86,230.023c-0.556-2.071-1.227-3.39-3.028-4.629c-3.224-2.218-7.287-3.555-11.187-3.761
			c-4.109-0.217-8.291,0.228-12.392,0.49c-4.703,0.3-9.441,0.78-14.159,0.606c-2.95-0.108-6.362-0.262-8.985-1.787
			c-2.585-1.503-3.858-4.451-6.17-6.293c-2.833-2.257-6.429-3.54-10.012-3.88c-4.082-0.387-8.022,0.338-12.042,0.903
			c-0.894,0.126-1.768,0.137-2.653-0.04c-1.066-0.214-2.171-0.639-3.278-0.482c-1.237,0.176-2.241,1.115-3.177,1.857
			c-1.313,1.041-2.727,1.632-4.2,2.402c-0.527,0.275-0.994,0.628-1.469,0.984"/>
	</g>
	<g id="POLYLINE_859_">
		
			<path fill="none" stroke="#FB8604" stroke-width="2.75" stroke-linecap="round" stroke-linejoin="round" stroke-miterlimit="10" d="
			M171.982,428.759c0.725,4.294,1.708,8.537,2.459,12.825c0.733,4.186,1.071,8.422,1.263,12.664
			c0.195,4.308,0.293,8.622,0.277,12.935c-0.017,4.598-0.092,9.198-0.292,13.792c-0.193,4.452-0.572,8.881-1.001,13.316
			c-0.33,3.411-0.614,6.957,1.081,10.07c0.858,1.576,2.024,2.968,3.197,4.316c1.523,1.75,3.071,3.479,4.577,5.244
			c2.926,3.428,5.758,6.938,8.478,10.532c2.532,3.345,4.952,6.774,7.244,10.287c2.485,3.808,4.817,7.709,7.092,11.645
			c1.792,3.1,3.515,6.244,5.194,9.407c2.753,5.186,5.505,10.371,8.258,15.557c1.743,3.283,3.504,6.557,5.404,9.752
			c1.039,1.748,2.106,3.507,3.401,5.08c1.194,1.451,2.702,2.513,4.037,3.816c1.796,1.753,2.123,3.667,2.398,6.101
			c0.138,1.218,0.295,2.67,1.332,3.483c0.907,0.711,2.187,0.847,3.295,0.922c1.901,0.129,3.818,0.044,5.722,0.028
			c2.452-0.021,4.907-0.006,7.359-0.087c3.435-0.114,7.26-0.16,10.48-1.51c2.263-0.949,3.566-2.826,3.531-5.288
			c-0.025-1.742-0.49-3.461-0.99-5.118c-0.403-1.336-0.902-2.603-1.739-3.732c-1.077-1.452-2.513-2.656-4.322-3.001
			c-1.644-0.314-3.373-0.161-5.035-0.166c-2.026-0.006-4.059-0.064-6.069-0.332c-2.29-0.305-4.548-0.852-6.042-2.729
			c-1.181-1.484-2.088-3.186-3.231-4.706c-1.332-1.772-2.76-3.457-4.228-5.116c-2.707-3.059-4.84-6.545-6.899-10.059
			c-2.169-3.701-4.216-7.476-6.164-11.298c-2.061-4.046-4.003-8.151-5.796-12.324c-1.703-3.964-3.227-8.002-4.628-12.081
			c-1.394-4.058-2.623-8.175-3.715-12.325c-1.109-4.216-2.083-8.475-2.857-12.766c-0.77-4.274-1.333-8.584-1.569-12.922
			c-0.224-4.114-0.142-8.244,0.105-12.355c0.297-4.946,0.737-9.885,1.123-14.825c0.315-4.029,0.651-8.058,0.769-12.099
			c0.063-2.163,0.006-4.309-0.099-6.469c-0.065-1.328-0.131-2.684,0.192-3.987c0.33-1.333,1.084-2.505,1.869-3.613
			c1.181-1.667,2.472-3.271,3.41-5.096c1.801-3.504,2.173-7.513,3.241-11.257c1.116-3.912,3.199-7.525,3.993-11.53
			c0.718-3.622,0.172-7.224-0.702-10.767c-1.028-4.164-2.261-8.265-3.099-12.475c-0.824-4.141-1.427-8.316-2.054-12.49"/>
	</g>
	<g id="POLYLINE_858_">
		
			<path fill="none" stroke="#FB8604" stroke-width="2.75" stroke-linecap="round" stroke-linejoin="round" stroke-miterlimit="10" d="
			M351.871,404.963c-0.368,3.386-0.719,6.774-1.113,10.156c-0.601,5.156-1.203,10.313-1.804,15.469
			c-0.404,3.462-0.848,6.922-1.205,10.389c-0.441,4.281-0.822,8.573-1.394,12.839c-0.54,4.03-1.3,8.003-2.4,11.919
			c-1.087,3.87-2.396,7.698-3.178,11.647c-0.689,3.478-0.716,6.949-0.392,10.47c0.375,4.077,0.929,8.125,1.162,12.215
			c0.223,3.913,0.287,7.841,0.196,11.76c-0.096,4.137-0.326,8.266-0.739,12.384c-0.364,3.639-0.88,7.266-1.463,10.876
			c-0.695,4.307-1.44,8.61-2.036,12.933c-0.533,3.866-0.894,7.754-1.047,11.655c-0.154,3.912-0.233,7.909,0.246,11.801
			c0.184,1.496,0.495,2.972,1.006,4.392c0.591,1.644,1.39,3.227,1.755,4.945c0.662,3.112-0.475,6.126-0.976,9.165
			c-0.306,1.859,0.032,3.522,1.08,5.105c1.478,2.234,3.784,3.931,6.323,4.756c3.341,1.086,6.975,0.929,10.441,0.867
			c4.276-0.077,8.556-0.125,12.826-0.396c1.756-0.111,3.516-0.267,5.254-0.543"/>
	</g>
</g>
<g id="AG-OUTLINE">
	<g id="POLYLINE_857_">
		
			<path fill="none" stroke="#FB8604" stroke-width="3.5" stroke-linecap="round" stroke-linejoin="round" stroke-miterlimit="10" d="
			M361.707,494.716c1.1,5.706,2.707,11.316,3.578,17.065c0.844,5.567,0.93,11.222,0.874,16.843
			c-0.067,6.621-0.388,13.243-0.612,19.86c-0.078,2.304-0.154,4.606-0.154,6.911c0.001,2.845,0.364,5.633,0.54,8.466
			c0.173,2.791-0.057,5.6,0.281,8.383c0.276,2.273,1.212,4.114,2.2,6.154c0.242,0.499,0.466,1.007,0.648,1.531
			c-3.264-0.139-6.445-0.399-9.518-1.591c-1.674-0.649-3.698-1.53-4.762-3.069c-1.328-1.922-0.319-4.565-0.19-6.669
			c0.194-3.174-0.893-6.274-1.372-9.38c-1.033-6.701,0.299-13.565,0.414-20.292c0.122-7.108-0.075-14.122,1.741-21.057
			c0.895-3.415,2.079-6.747,2.993-10.158c0.941-3.514,1.738-7.065,2.679-10.58C361.114,496.883,361.597,494.716,361.707,494.716z"/>
	</g>
	<g id="POLYLINE_856_">
		
			<path fill="none" stroke="#FB8604" stroke-width="3.5" stroke-linecap="round" stroke-linejoin="round" stroke-miterlimit="10" d="
			M544.806,231.259c-1.379-0.347-2.052,1.032-2.849,1.883c-0.464,0.495-0.994,0.917-1.603,1.221
			c-1.079,0.538-2.289,0.627-3.447,0.895c-0.411,0.095-1.11,0.203-0.787,0.722c0.356,0.573,1.267,0.862,1.772,1.314
			c1.334,1.194-1.246,1.914-2.098,2.238c-1.966,0.746-3.923,1.475-5.714,2.598c-0.607,0.381-2.892,1.683-2.737,2.618
			c0.157,0.95,3.469,0.162,3.996,0.087c0.699-0.099,1.481-0.294,2.192-0.216c0.734,0.08,0.382,0.524,0.011,0.89
			c-1.269,1.252-2.817,2.183-4.06,3.473c-1.619,1.682-2.744,3.65-1.643,5.925c0.554,1.146,0.26,1.95-0.615,2.854
			c-1.304,1.347-2.89,2.437-4.346,3.608c-1.462,1.176-2.918,2.388-4.145,3.815c-0.612,0.711-1.267,1.534-1.528,2.458
			c-0.142,0.504-0.146,1.042,0.195,1.471c0.426,0.538,1.177,0.608,1.663,1.061c0.953,0.89-0.857,2.437-1.438,3.049
			c-0.622,0.655-1.29,1.289-1.846,2.003c-0.394,0.507-0.746,1.086,0.117,1.208c0.358,0.051,1.684-0.167,1.502,0.27
			c-0.185,0.447-1.356,0.88-1.725,1.09c-0.426,0.242-1.546,0.653-1.776,1.149c0.632,0.337,4.395-1.285,4.139,0.51
			c-0.086,0.603-0.538,1.224-0.865,1.715c-0.657,0.987-1.45,1.88-2.094,2.874c-0.203,0.314-0.483,0.645,0.016,0.644
			c0.394-0.001,0.851-0.291,1.236-0.394c0.556-0.148,1.234-0.282,1.706,0.137c0.481,0.426,0.736,1.465,0.734,2.1
			c-0.002,0.638-0.611,1.307-0.941,1.855c-0.323,0.538-0.649,1.074-0.959,1.62c-2.605,4.573-3.995,9.826-7.377,13.949
			c-3.235,3.943-7.967,6.334-12.651,8.121c-4.433,1.691-9.249,2.802-14.015,2.29c-4.761-0.512-9.279-2.518-13.26-5.112
			c-4.474-2.915-8.101-6.823-12.289-10.094c-0.508-0.397-1.027-0.78-1.542-1.167c-0.372-0.28-0.744-0.559-1.116-0.839
			c-0.216-0.162-0.676-0.386-0.821-0.618c-0.195-0.311-0.055-1.066-0.078-1.468c-0.019-0.337-0.037-0.693-0.125-1.021
			c-0.274-1.02-0.946,0.114-1.484-0.688c-0.412-0.614-0.593-1.438-0.794-2.133c-0.619-2.137-0.968-4.485-1.955-6.496
			c-0.308-0.627-0.682-1.126-1.364-0.661c-0.738,0.505-1.128,1.041-1.541-0.11c-0.652-1.817-0.626-3.84-1.395-5.623
			c-0.391-0.907-0.903-1.026-1.785-1.27c-0.78-0.216-1.06-0.851-1.284-1.576c-0.327-1.055-0.478-2.16-0.718-3.236
			c-0.148-0.666-0.296-1.549-0.764-2.078c-0.555-0.627-1.522-0.432-2.196-0.875c-0.767-0.504-1.275-1.465-1.736-2.23
			c-0.741-1.229-1.832-3.917-3.629-3.757c-0.622,0.055-1.349,0.5-1.97,0.239c-0.66-0.278-0.965-1.273-1.211-1.882
			c-0.331-0.818-0.625-1.85-1.267-2.497c-0.475-0.478-1.089-0.511-1.723-0.512c-1.313-0.003-2.272-0.276-3.085-1.36
			c-1.274-1.699-1.798-3.834-3.01-5.56c-0.227-0.323-0.459-0.605-0.868-0.647c-0.32-0.033-0.603,0.12-0.921-0.006
			c-0.709-0.282-1.232-1.424-1.603-2.004c-0.292-0.457-0.826-1.554-1.429-1.697c-0.803-0.19-1.083,1.269-1.692,0.132
			c-0.881-1.644-1.067-3.575-2.512-4.891c-2.346-2.137-5.773-1.26-8.542-2.291c-1.538-0.573-2.93-1.509-4.593-1.693
			c-1.601-0.177-3.3,0.221-4.773,0.819c-0.622,0.252-1.101,0.611-1.799,0.55c-0.549-0.048-1.096-0.222-1.604-0.426
			c-1.755-0.703-3.123-2.059-4.796-2.909c-3.141-1.596-6.898-0.352-10.234-0.378c-2.058-0.016-3.898-0.593-5.73-1.505
			c-1.61-0.802-3.216-1.826-5.03-2.084c-1.534-0.218-3.33,0.243-4.754-0.519c-1.125-0.601-1.836-1.885-3.144-2.154
			c-1.687-0.347-3.672,0.819-5.175,1.36c-1.244,0.447-2.531,0.786-3.86,0.622c-1.156-0.143-2.364-0.599-2.749-1.789
			c-0.541-1.67-2.792-1.454-4.213-1.926c-0.713-0.236-1.295-0.568-1.406-1.361c-0.094-0.672,0.106-1.417-0.306-2.016
			c-0.403-0.586-1.228-0.843-1.871-1.056c-1.041-0.346-2.127-0.569-3.145-0.986c-0.639-0.262-1.331-0.614-1.536-1.325
			c-0.203-0.701,0.258-1.518,0.009-2.174c-0.281-0.739-1.705-0.399-2.287-0.351c-0.981,0.082-1.964,0.144-2.945,0.028
			c-3.275-0.385-5.634-2.973-7.779-5.241c-0.805-0.851-1.586-1.766-2.495-2.511c-0.384-0.314-0.898-0.738-1.427-0.613
			c-0.786,0.187-1.084,1.173-2.001,1.107c-0.554-0.04-1.098-0.403-1.548-0.705c-2.061-1.383-3.658-3.335-5.648-4.802
			c-0.456-0.336-1.134-0.808-1.174,0.073c-0.031,0.68,0.426,1.627,0.144,2.279c-0.509,1.177-4.358-1.869-4.782-2.143
			c-1.899-1.226-3.86-2.398-6.005-3.142c-1.875-0.65-4.027-1.167-6.028-0.985c-0.265,0.024-0.735,0.033-0.938,0.229
			c-0.368,0.356,0.117,0.652,0.418,0.874c0.394,0.291,2.223,1.142,1.338,1.709c-0.588,0.378-1.62,0.358-2.285,0.395
			c-1.315,0.072-2.639,0.028-3.951-0.077c-1.413-0.113-2.81-0.341-4.212-0.547c-0.821-0.121-1.745-0.332-2.579-0.192
			c-0.908,0.152-0.811,0.815-0.852,1.56c-0.044,0.788-0.431,1.237-1.104,1.626c-0.665,0.385-1.4,0.652-2.109,0.944
			c-1.727,0.71-3.453,1.419-5.18,2.129c-4.862,1.998-9.881,3.924-14.372,6.686c-2.338,1.438-4.441,3.198-6.559,4.935
			c-1.906,1.563-3.77,3.202-5.469,4.991c-1.65,1.737-2.937,3.8-4.658,5.466c-1.348,1.305-2.982,2.09-4.731,2.725
			c-2.327,0.845-4.767,1.536-6.88,2.866c-2.07,1.303-3.643,3.215-5.258,5.017c-1.358,1.515-2.787,2.926-4.639,3.82
			c-2.057,0.994-4.348,1.421-6.366,2.5c-1.809,0.967-3.147,2.538-4.775,3.751c-1.062,0.791-2.203,1.19-3.511,1.352
			c-2.322,0.288-4.481,0.482-6.651,1.42c-1.835,0.793-3.6,1.891-4.994,3.338c-1.383,1.436-2.287,3.244-3.622,4.717
			c-1.226,1.353-2.811,2.158-4.459,2.891c-1.589,0.707-3.555,1.32-4.753,2.667c-0.78,0.877-1.088,2.038-1.747,2.992
			c-1.026,1.485-2.667,2.499-3.986,3.696c-2.193,1.99-4.244,4.143-6.358,6.216c-1.719,1.685-3.5,3.33-5.411,4.796
			c-2.086,1.6-4.391,2.814-6.666,4.117c-1.798,1.03-3.4,2.192-4.622,3.884c-1.33,1.842-2.318,3.931-3.928,5.562
			c-1.676,1.698-3.847,2.765-5.775,4.133c-0.969,0.688-1.84,1.451-2.4,2.513c-0.733,1.39-1.023,2.951-1.91,4.269
			c-1.082,1.607-2.602,2.947-3.413,4.732c-0.668,1.469-0.511,3.047-0.343,4.607c0.242,2.258,0.286,4.335-0.125,6.579
			c-0.483,2.638-1.204,5.228-1.567,7.888c-0.352,2.583-0.372,5.205-0.225,7.804c0.309,5.472,1.237,10.897,2.026,16.314
			c0.812,5.577,1.687,11.149,2.221,16.762c0.491,5.167,0.634,10.396-0.044,15.553c-0.626,4.761-2.184,9.621-1.279,14.444
			c0.472,2.518,1.353,4.935,1.563,7.502c0.198,2.419-0.038,4.888,0.393,7.285c0.219,1.217,0.692,2.323,1.446,3.305
			c0.607,0.791,1.517,1.36,2.096,2.143c0.322,0.434,0.123,1.243,0.096,1.811c-0.036,0.769-0.08,1.536-0.132,2.304
			c-0.373,5.539-1.154,11.052-2.008,16.534c-0.852,5.474-1.843,10.935-3.127,16.326c-1.275,5.358-3.163,10.408-5.322,15.464
			c-1.416,3.316-2.895,6.762-1.891,10.392c0.54,1.952,1.426,3.851,2.173,5.73c1.462,3.681,2.923,7.363,4.385,11.044
			c1.922,4.841,3.814,9.69,5.594,14.586c1.815,4.991,3.441,10.056,4.949,15.147c1.591,5.374,3.103,10.773,4.518,16.196
			c0.683,2.618,1.37,5.24,1.772,7.919c0.383,2.552,0.344,5.086,0.295,7.658c-0.042,2.213,0.042,4.427,0.728,6.548
			c0.672,2.079,1.755,4.007,2.887,5.865c2.224,3.647,5.204,7.47,5.173,11.952c-0.012,1.673-0.692,4.149,0.458,5.626
			c1.005,1.292,3.076,1.549,4.57,1.735c5.362,0.668,10.944,0.7,16.336,0.464c2.554-0.112,5.13-0.334,7.604-1.012
			c1.395-0.382,2.955-0.85,4.097-1.785c2.51-2.054,1.427-6.619,0.945-9.299c-0.43-2.387-1.317-4.354-3.611-5.41
			c-3.493-1.608-7.487-0.434-11.098-1.502c-3.386-1.001-5.478-4.102-7.185-6.983c-1.366-2.305-2.626-4.65-4.157-6.853
			c-1.478-2.127-2.866-4.258-3.887-6.649c-2.099-4.918-3.353-10.228-4.556-15.423c-1.276-5.51-2.334-11.067-3.352-16.629
			c-0.914-4.998-1.768-10.102-1.82-15.194c-0.055-5.428,1.088-10.815,1.501-16.218c0.198-2.589,0.337-5.186,0.37-7.783
			c0.033-2.592-0.207-5.195-0.066-7.784c0.1-1.838,0.589-3.542,1.275-5.244c1.036-2.569,2.066-5.103,2.861-7.76
			c1.632-5.453,2.781-11.036,3.988-16.594c1.047-4.821,1.905-9.919,4.195-14.34c1.97-3.805,5.656-6.007,8.193-9.351
			c0.725,4.294,1.708,8.537,2.459,12.825c0.733,4.186,1.071,8.422,1.263,12.664c0.195,4.308,0.293,8.622,0.277,12.935
			c-0.017,4.598-0.092,9.198-0.292,13.792c-0.193,4.452-0.572,8.881-1.001,13.316c-0.33,3.411-0.614,6.957,1.081,10.07
			c0.858,1.576,2.024,2.968,3.197,4.316c1.523,1.75,3.071,3.479,4.577,5.244c2.926,3.428,5.758,6.938,8.478,10.532
			c2.532,3.345,4.952,6.774,7.244,10.287c2.485,3.808,4.817,7.709,7.092,11.645c1.792,3.1,3.515,6.244,5.194,9.407
			c2.753,5.186,5.505,10.371,8.258,15.557c1.743,3.283,3.504,6.557,5.404,9.752c1.039,1.748,2.106,3.507,3.401,5.08
			c1.194,1.451,2.702,2.513,4.037,3.816c1.796,1.753,2.123,3.667,2.398,6.101c0.138,1.218,0.295,2.67,1.332,3.483
			c0.907,0.711,2.187,0.847,3.295,0.922c1.901,0.129,3.818,0.044,5.722,0.028c2.452-0.021,4.907-0.006,7.359-0.087
			c3.435-0.114,7.26-0.16,10.48-1.51c2.263-0.949,3.566-2.826,3.531-5.288c-0.025-1.742-0.49-3.461-0.99-5.118
			c-0.403-1.336-0.902-2.603-1.739-3.732c-1.077-1.452-2.513-2.656-4.322-3.001c-1.644-0.314-3.373-0.161-5.035-0.166
			c-2.026-0.006-4.059-0.064-6.069-0.332c-2.29-0.305-4.548-0.852-6.042-2.729c-1.181-1.484-2.088-3.186-3.231-4.706
			c-1.332-1.772-2.76-3.457-4.228-5.116c-2.707-3.059-4.84-6.545-6.899-10.059c-2.169-3.701-4.216-7.476-6.164-11.298
			c-2.061-4.046-4.003-8.151-5.796-12.324c-1.703-3.964-3.227-8.002-4.628-12.081c-1.394-4.058-2.623-8.175-3.715-12.325
			c-1.109-4.216-2.083-8.475-2.857-12.766c-0.77-4.274-1.333-8.584-1.569-12.922c-0.224-4.114-0.142-8.244,0.105-12.355
			c0.297-4.946,0.737-9.885,1.123-14.825c0.315-4.029,0.651-8.058,0.769-12.099c0.063-2.163,0.006-4.309-0.099-6.469
			c-0.065-1.328-0.131-2.684,0.192-3.987c0.33-1.333,1.084-2.505,1.869-3.613c1.181-1.667,2.472-3.271,3.41-5.096
			c1.801-3.504,2.173-7.513,3.241-11.257c1.116-3.912,3.199-7.525,3.993-11.53c0.718-3.622,0.172-7.224-0.702-10.767
			c-1.028-4.164-2.261-8.265-3.099-12.475c-0.824-4.141-1.427-8.316-2.054-12.49c4.234,1.899,8.107,4.633,11.867,7.324
			c4.177,2.989,8.257,6.121,12.527,8.978c4.043,2.705,8.287,5.067,12.679,7.154c4.384,2.083,8.877,3.946,13.44,5.601
			c4.54,1.646,9.154,3.089,13.843,4.244c4.713,1.161,9.502,2.021,14.332,2.514c4.758,0.485,9.541,0.583,14.314,0.291
			c4.915-0.301,9.804-0.975,14.724-1.192c4.841-0.214,9.526,0.668,14.302,1.304c4.63,0.617,9.332,0.887,14.002,0.851
			c1.203-0.009,2.405-0.049,3.606-0.112c-0.594,5.463-1.203,10.923-1.839,16.381c-0.755,6.472-1.575,12.94-2.262,19.42
			c-0.657,6.201-1.125,12.447-2.295,18.579c-1.12,5.868-3.271,11.458-4.541,17.286c-1.239,5.684-0.552,11.205,0.07,16.919
			c0.631,5.794,0.829,11.616,0.753,17.442c-0.076,5.872-0.496,11.743-1.262,17.565c-0.803,6.099-1.902,12.155-2.815,18.238
			c-0.855,5.691-1.303,11.448-1.312,17.203c-0.005,2.768,0.026,5.578,0.452,8.319c0.4,2.573,1.516,4.818,2.31,7.272
			c0.61,1.886,0.636,3.749,0.33,5.704c-0.33,2.106-1.187,4.227-1.097,6.38c0.138,3.268,3.049,6.063,5.79,7.456
			c2.28,1.159,4.868,1.483,7.393,1.58c3.08,0.119,6.18-0.013,9.26-0.079c2.834-0.061,5.67-0.14,8.5-0.325
			c1.449-0.095,2.899-0.223,4.339-0.419c1.303-0.178,2.654,0.166,3.973,0.253c5.878,0.386,11.875,0.786,17.765,0.504
			c3.309-0.159,7.951-0.355,10.336-3.064c2.028-2.303,1.6-5.847,0.862-8.563c-0.946-3.482-2.988-6.793-6.551-7.976
			c-3.254-1.081-7.086-0.228-9.922-2.491c-3.49-2.784-4.583-7.831-5.358-11.974c-1.116-5.966-2.091-11.967-2.918-17.98
			c-0.813-5.906-1.429-11.851-1.55-17.815c-0.117-5.755,0.183-11.555,1.262-17.217c1.106-5.803,3.474-11.255,4.678-17.028
			c0.575-2.757,0.921-5.568,1.021-8.383c0.102-2.883-0.202-5.721-0.416-8.591c-0.43-5.746,0.532-11.462,1.647-17.081
			c1.02-5.141,2.201-10.263,3.479-15.345c1.826-7.26,3.652-14.519,5.478-21.779c1.377-5.474,2.755-10.948,4.138-16.42
			c1.379-5.453,2.78-10.998,5.04-16.165c0.919-2.101,2.004-4.272,3.689-5.87c1.806-1.713,4.206-2.491,6.356-3.657
			c4.944-2.682,8.705-7.092,13.191-10.41c1.478-1.093,3.073-2.053,4.905-2.385c2.202-0.399,4.532-0.036,6.723,0.259
			c6.548,0.88,13.049,2.156,19.557,3.284c5.482,0.95,10.998,1.754,16.547,2.18c5.593,0.429,11.254,0.396,16.806-0.472
			c5.859-0.916,11.554-2.756,16.85-5.422c5.204-2.619,9.965-6,14.366-9.804c4.382-3.787,8.468-7.955,12.132-12.441
			c1.878-2.299,3.526-4.739,5.23-7.166c1.312-1.87,2.776-3.555,4.737-4.76c2.25-1.381,4.762-2.195,7.14-3.312
			c2.256-1.059,4.088-2.879,5.94-4.506c0.031,1.772-0.076,3.525,0.297,5.272c0.179,0.835,0.469,2.293,1.221,2.837
			c0.941,0.681,1.839-1.592,2.21-2.112c0.275-0.384,0.62-0.846,1.143-0.667c0.413,0.142,0.749,0.653,1.001,0.992
			c0.664,0.894,1.459,2.444,2.789,2.35c1.084-0.077,1.801-1.19,2.254-2.072c0.763-1.486,1.018-3.144,1.581-4.703
			c0.125-0.345,0.337-1.098,0.79-1.092c0.558,0.007,1.026,1.132,1.367,1.482c1.037,1.065,1.437-1.282,1.589-1.953
			c0.39-1.723,0.499-3.542,1.029-5.228c0.259-0.824,0.509-0.384,0.722,0.192c0.174,0.47,0.333,1.351,0.779,1.672
			c0.997,0.715,1.914-2.068,2.141-2.674c1.411-3.769,1.976-7.8,3.386-11.563c0.654-1.747,1.615-3.355,2.308-5.086
			c0.636-1.589,1.1-3.25,1.308-4.951c0.338-2.768-0.521-5.595,0.283-8.301c0.569-1.917,1.511-3.697,2.21-5.567
			c0.754-2.018,1.285-4.118,1.879-6.186c0.521-1.81,1.06-3.621,1.783-5.363c0.336-0.81,0.712-1.605,1.166-2.356
			c0.179-0.297,0.37-0.587,0.573-0.869c0.294-0.407,0.387-0.508,0.902-0.577c1.931-0.261,3.761-0.691,5.642-1.17
			c2.126-0.541,4.3-0.888,6.451-1.307c3.829-0.746,7.44-1.948,10.967-3.616c2.048-0.969,4.061-2.014,6.086-3.028
			c1.566-0.785,3.18-1.57,4.89-1.988c1.666-0.407,3.346-0.327,5.039-0.198c2.125,0.162,4.255,0.37,6.389,0.325
			c2.439-0.051,5.029-0.447,7.059-1.902c1.466-1.05,2.316-2.585,2.601-4.349c0.097-0.6,0.133-1.209,0.123-1.816
			c-0.003-0.176-0.051-0.397-0.023-0.57c0.051-0.31-0.002-0.224,0.292-0.386c0.274-0.151,0.579-0.253,0.857-0.399
			c0.637-0.334,1.245-0.748,1.726-1.288c1.362-1.526,1.339-3.829,0.866-5.704c-0.617-2.444-2.233-4.612-4.271-6.069
			c-0.667-0.477-1.36-0.772-2.134-1.031c0.786-1.281-0.357-3.356-1.09-4.415c-0.615-0.89-1.397-1.636-2.351-2.15
			c-0.379-0.204-0.778-0.37-1.186-0.508c-0.159-0.054-0.465-0.088-0.57-0.2c-0.19-0.203-0.233-0.887-0.324-1.179
			c-0.155-0.497-0.349-0.979-0.626-1.421c-0.869-1.386-2.403-2.297-3.811-3.04c-2.662-1.405-5.616-2.388-8.621-2.661
			c-3.254-0.295-6.587,0.069-9.838,0.23c-6.236,0.31-12.517,1.134-18.767,0.747c-2.351-0.146-4.881-0.375-7.053-1.364
			c-1.425-0.649-2.506-1.719-3.474-2.932c-1.686-2.113-3.32-3.932-5.715-5.251c-2.378-1.309-4.998-2.096-7.697-2.352
			c-2.864-0.272-5.785-0.057-8.628,0.339c-1.875,0.261-3.818,0.888-5.724,0.587c-1.616-0.255-3.117-0.986-4.693-0.192
			c-0.892,0.45-1.638,1.149-2.422,1.754c-0.956,0.739-1.991,1.264-3.084,1.77c-0.378,0.175-0.76,0.345-1.12,0.557
			c-0.164,0.096-0.322,0.202-0.478,0.31c-0.339,0.236-0.503,0.47-0.892,0.404c-0.544-0.092-1.118-0.431-1.656-0.588
			c-0.42-0.122-0.845-0.225-1.276-0.302c-1.495-0.265-3.222-0.258-4.405,0.833c-0.771,0.712-1.204,1.723-1.463,2.721
			c-0.669,2.581-0.391,5.441,0.205,8.005C543.634,228.449,544.128,229.897,544.806,231.259z"/>
	</g>
</g>
</svg>
